<?xml version="1.0" encoding="UTF-8" ?>
<!DOCTYPE svg PUBLIC "-//W3C//DTD SVG 1.1//EN" "http://www.w3.org/Graphics/SVG/1.1/DTD/svg11.dtd">
<svg width="596pt" height="596pt" viewBox="0 0 596 596" version="1.1" xmlns="http://www.w3.org/2000/svg">
<g id="#e6b800ff">
<path fill="#000000" opacity="1.00" d=" M 303.45 70.01 C 327.42 74.72 348.73 88.55 371.77 96.11 C 374.79 99.59 379.91 100.21 383.97 102.12 C 390.77 123.30 397.89 145.00 401.08 166.85 C 400.61 167.19 399.67 167.86 399.20 168.20 C 394.18 178.84 385.83 187.50 378.74 196.82 C 379.56 196.80 381.20 196.75 382.02 196.73 L 382.01 196.00 C 392.35 196.15 402.85 195.08 412.87 198.10 C 415.46 199.72 419.00 200.74 421.93 202.26 C 428.70 208.24 435.91 216.83 438.90 226.13 C 444.67 241.12 435.95 256.26 425.85 266.97 C 336.65 266.99 247.44 267.08 158.23 266.92 C 150.30 259.43 145.48 249.24 143.11 238.73 C 144.44 225.36 150.02 211.82 160.59 203.34 C 161.13 203.22 162.20 202.97 162.74 202.85 C 165.84 199.35 170.86 198.68 175.01 196.94 C 175.05 195.41 175.09 193.88 175.14 192.36 C 175.95 189.70 179.33 189.62 179.07 187.05 C 185.11 182.39 187.67 172.60 195.88 168.90 C 196.69 167.34 196.37 164.79 197.90 163.88 C 199.01 157.96 200.83 152.19 202.21 146.33 C 212.97 137.48 218.97 122.27 233.91 119.79 C 233.99 117.98 234.07 116.18 234.16 114.37 C 237.04 109.81 240.39 107.30 246.40 108.28 C 252.89 111.06 254.82 119.53 250.75 125.13 C 254.64 123.95 259.15 124.88 262.65 122.67 C 264.48 118.93 265.04 114.83 265.80 110.78 L 265.34 111.24 C 265.67 108.88 265.95 106.51 266.20 104.14 C 278.93 93.12 290.75 81.10 303.45 70.01 M 244.09 132.65 C 244.93 135.11 248.81 135.68 250.43 138.03 C 255.10 136.36 260.37 137.03 265.09 135.10 C 265.05 133.40 265.03 131.70 265.01 130.00 C 258.45 132.15 250.85 135.31 244.09 132.65 M 236.15 142.70 C 235.70 143.77 235.25 144.85 234.82 145.92 C 231.28 147.76 228.90 151.21 225.69 153.72 C 231.13 156.22 234.58 161.34 238.94 165.24 C 242.28 174.71 233.78 182.55 228.99 189.80 C 231.98 190.86 234.98 191.94 237.93 193.13 C 238.36 194.06 238.80 195.00 239.23 195.94 C 263.77 196.75 288.48 194.55 312.90 197.17 C 292.72 191.33 280.67 171.51 267.25 155.77 C 266.89 151.83 266.33 147.92 265.83 144.00 C 255.93 145.23 245.53 148.14 236.15 142.70 M 213.18 167.10 C 208.57 178.55 195.69 182.92 187.69 191.71 C 190.16 192.01 193.84 193.10 194.04 195.98 C 201.60 196.00 209.16 196.05 216.72 195.95 C 217.35 189.32 222.76 184.94 223.11 178.21 C 225.88 177.25 224.81 173.19 227.55 172.51 C 223.68 170.14 218.44 169.56 215.67 165.81 C 214.84 166.24 214.01 166.67 213.18 167.10 Z" />
<path fill="#000000" opacity="1.00" d=" M 118.06 272.00 C 223.71 272.00 329.35 272.01 435.00 271.99 C 447.99 271.61 460.98 273.36 473.62 276.23 C 481.00 287.94 488.94 299.37 496.21 310.92 C 498.08 324.84 488.15 336.93 484.03 349.34 C 356.45 350.89 228.69 349.53 101.04 350.02 C 97.87 345.36 95.62 339.72 93.21 334.89 C 91.54 327.53 89.16 319.72 86.64 312.95 C 95.34 298.10 108.25 286.30 118.06 272.00 Z" />
<path fill="#000000" opacity="1.00" d=" M 266.35 357.12 C 277.28 357.26 288.17 356.72 299.04 355.98 C 316.12 359.16 335.19 351.52 351.09 359.94 C 356.54 359.26 357.54 365.61 360.25 368.73 C 372.42 390.45 384.18 412.37 396.84 433.68 C 396.69 435.72 396.41 437.76 396.03 439.78 C 383.01 457.70 370.66 476.19 353.76 490.92 C 313.26 491.05 272.76 491.07 232.27 490.91 C 217.40 478.00 202.42 465.11 187.99 451.68 C 189.85 439.59 190.15 426.64 194.34 415.31 C 205.08 408.09 213.71 398.23 224.88 391.72 C 227.60 388.39 231.72 385.05 235.68 382.68 C 236.14 381.83 236.61 380.99 237.08 380.15 C 238.36 379.69 239.64 379.24 240.93 378.79 C 241.26 375.45 246.66 375.55 247.12 372.26 C 248.33 371.74 249.53 371.23 250.74 370.73 C 251.20 369.88 251.67 369.03 252.14 368.19 C 257.65 365.60 261.53 360.66 266.35 357.12 Z" />
<path fill="#000000" opacity="1.00" d=" M 391.51 357.18 C 427.49 356.55 463.82 354.46 499.46 359.20 C 513.14 373.33 526.81 387.53 540.70 401.49 C 546.43 419.26 543.26 438.48 542.96 456.85 C 527.50 468.17 511.63 479.21 496.05 490.14 C 475.93 491.97 455.47 490.76 435.23 490.76 C 417.72 485.24 400.64 477.27 382.76 472.64 C 390.58 460.70 398.49 448.93 406.99 437.55 C 397.18 415.91 384.08 396.17 374.03 374.95 C 379.98 369.17 386.58 363.92 391.51 357.18 Z" />
<path fill="#000000" opacity="1.00" d=" M 62.39 374.34 C 77.36 368.86 92.04 361.92 107.13 357.21 C 140.50 358.02 174.82 352.76 206.88 364.10 C 207.73 365.66 210.40 365.27 211.96 366.07 C 214.81 372.11 220.63 376.69 221.25 383.71 C 208.63 393.14 196.75 403.57 184.40 413.34 C 182.96 426.80 180.64 440.14 179.03 453.58 C 186.61 461.49 194.75 468.88 202.27 476.88 C 188.40 481.44 174.36 485.90 160.63 490.70 C 136.17 491.36 111.66 490.87 87.18 490.94 C 72.69 478.99 56.40 469.14 42.17 456.84 C 41.12 442.05 39.72 426.91 42.08 412.23 C 47.15 404.76 49.47 395.72 54.92 388.81 C 54.97 388.16 55.05 386.85 55.09 386.20 C 58.64 383.12 59.19 377.83 62.39 374.34 Z" />
</g>
</svg>
